<svg width="75" height="66" viewBox="0 0 75 66" fill="none" xmlns="http://www.w3.org/2000/svg">
<path d="M27.5447 64.9995C29.3773 64.9995 30.8629 63.6351 30.8629 61.9519C30.8629 60.2688 29.3773 58.9043 27.5447 58.9043C25.7122 58.9043 24.2266 60.2688 24.2266 61.9519C24.2266 63.6351 25.7122 64.9995 27.5447 64.9995Z" fill="#3F3D56" stroke="black" stroke-width="2" stroke-linecap="round" stroke-linejoin="round"/>
<path d="M64.0447 64.9995C65.8773 64.9995 67.3629 63.6351 67.3629 61.9519C67.3629 60.2688 65.8773 58.9043 64.0447 58.9043C62.2122 58.9043 60.7266 60.2688 60.7266 61.9519C60.7266 63.6351 62.2122 64.9995 64.0447 64.9995Z" fill="#3F3D56" stroke="black" stroke-width="2" stroke-linecap="round" stroke-linejoin="round"/>
<path d="M1 1H14.2727L23.1655 41.8076C23.4689 43.2107 24.3 44.4711 25.5132 45.3681C26.7265 46.2652 28.2446 46.7417 29.8018 46.7143H62.0545C63.6118 46.7417 65.1299 46.2652 66.3431 45.3681C67.5564 44.4711 68.3875 43.2107 68.6909 41.8076L74 16.2381H17.5909" fill="#3F3D56"/>
<path d="M1 1H14.2727L23.1655 41.8076C23.4689 43.2107 24.3 44.4711 25.5132 45.3681C26.7265 46.2652 28.2446 46.7417 29.8018 46.7143H62.0545C63.6118 46.7417 65.1299 46.2652 66.3431 45.3681C67.5564 44.4711 68.3875 43.2107 68.6909 41.8076L74 16.2381H17.5909" stroke="black" stroke-width="2" stroke-linecap="round" stroke-linejoin="round"/>
</svg>
